<?xml version="1.0" standalone="no"?><!DOCTYPE svg PUBLIC "-//W3C//DTD SVG 1.1//EN" "http://www.w3.org/Graphics/SVG/1.1/DTD/svg11.dtd"><svg t="1588525229111" class="icon" viewBox="0 0 1024 1024" version="1.1" xmlns="http://www.w3.org/2000/svg" p-id="1184" xmlns:xlink="http://www.w3.org/1999/xlink" width="64" height="64"><defs><style type="text/css"></style></defs><path d="M512 898.55a167.15 167.15 0 0 1-21.57-1.55l8 1.08c-21.79-3.06-42.87-9.76-63.1-18.29l7.22 3a403.08 403.08 0 0 1-56.09-29.62q-14.83-9.35-29-19.74-3.18-2.34-6.33-4.72c-1.6-1.21-6.09-5.39 0.5 0.41-0.88-0.77-1.88-1.47-2.8-2.19q-7.39-5.84-14.6-11.94a554.92 554.92 0 0 1-52.53-50.68q-11.81-13-22.69-26.83c-1.28-1.61-4-5.38 1 1.36-0.68-0.92-1.38-1.82-2.07-2.73q-2.56-3.4-5.07-6.84-5.44-7.47-10.56-15.17a390.06 390.06 0 0 1-34.22-62.93l3.05 7.22c-10-23.65-17.29-48.35-20.74-73.82l1.08 8c-2.26-17.42-2-34.79-2-52.29V247.71c0-4.94-0.29-10 0.29-14.93l-1.07 8a33.44 33.44 0 0 1 2.22-7.72l-3 7.22c0.74-1.57 1.89-3 2.56-4.6q-5.22 6.48-2.3 3c0.44-0.49 0.89-1 1.37-1.41 4-4.63-5.84 3.43-1.52 1.07 1.56-0.86 3.05-1.72 4.68-2.44l-7.21 3a34.12 34.12 0 0 1 7.83-2l-8 1.08c12.55-1.09 25.27-0.21 37.86-0.82a462.12 462.12 0 0 0 76.76-10.7c40.05-8.7 78.05-24.02 114.83-42.02a624.19 624.19 0 0 0 66.86-37.67c3.38-2.21 6.74-4.45 10-6.81 7.63-5.51 15.15-12.38 23.69-16.43l-7.22 3a35.75 35.75 0 0 1 7.28-2.14l-8 1.08a34.4 34.4 0 0 1 9 0l-8-1.08a36.15 36.15 0 0 1 7.28 2.12l-7.22-3.05c11 5.16 20.2 14.14 30.27 20.89a582.13 582.13 0 0 0 58.81 34.22c36.07 18.49 73.72 34.81 113.09 44.78a477.32 477.32 0 0 0 86.33 13.67c13.86 0.89 27.85-0.17 41.67 1l-8-1.08a34.12 34.12 0 0 1 7.83 2l-7.22-3c1.64 0.72 3.12 1.58 4.68 2.44 4.32 2.36-5.52-5.7-1.52-1.07 0.48 0.45 0.94 0.92 1.37 1.41q2.93 3.44-2.3-3c0.68 1.56 1.82 3 2.56 4.59l-3-7.22a34.46 34.46 0 0 1 2.22 7.72l-1.08-8c1.47 12.4 0.3 25.48 0.31 37.92v83.48l0.08 179.31c0 19.76 0.56 39.54-2 59.19l1.08-8c-3.45 25.47-10.78 50.18-20.74 73.84l3-7.22a386.5 386.5 0 0 1-29.7 56c-6.17 9.67-12.74 19.09-19.63 28.25-0.86 1.14-1.77 2.25-2.59 3.41 4.61-6.57 2.72-3.5 1.56-2-1.8 2.26-3.59 4.53-5.41 6.77q-5.82 7.15-11.9 14.09a548.44 548.44 0 0 1-51.56 51.39q-6.48 5.67-13.13 11.13-3.46 2.85-7 5.63l-2.79 2.21c-4.65 3.69 5.7-4.34-0.2 0.14q-14.1 10.72-28.94 20.46a409.62 409.62 0 0 1-63.18 34.16l7.22-3c-20.24 8.54-41.32 15.23-63.12 18.29l8-1.08a167.43 167.43 0 0 1-21.52 1.37c-15.81 0.07-31 13.86-30.22 30.23S495.05 959.07 512 959c49-0.2 97.06-19.53 139.07-43.41 50.13-28.5 95.93-66.4 134.56-109.13C846.64 738.94 895 653.15 894.93 560l-0.06-135-0.08-166.09v-18.54c0-16.27-4.77-30.92-15.51-43.38-10.89-12.65-27.26-18.94-43.64-19.52-5.94-0.21-11.89-0.2-17.83-0.3-8.28-0.13-16.51-0.21-24.76-0.84-8-0.61-16-1.49-23.91-2.56l8 1.08a436 436 0 0 1-110.36-30l7.22 3c-40.9-17.36-80.82-38.16-116.89-64.24-10.11-7.31-19.84-15.2-32.7-17.47-14.63-2.59-29.26-0.92-42.33 6.6a105.48 105.48 0 0 0-9.08 6.38c-9.75 7.1-19.44 14-29.66 20.42a668.75 668.75 0 0 1-93.45 48.38l7.22-3a435 435 0 0 1-110.25 30l8-1.08a329.43 329.43 0 0 1-34.65 3.17c-10.7 0.3-21.43 0.13-32.14 0.53-32.72 1.22-58.43 26.7-59 59.66-0.07 3.65 0 7.32 0 11v305.04c0 26.26 2.47 52.34 9 77.87 13.06 50.85 39 98.22 70.82 139.66a576.08 576.08 0 0 0 131.52 124.42 419 419 0 0 0 67.52 38.07c22.34 9.83 45.31 18.4 69.49 22.38A220.33 220.33 0 0 0 512 959c15.81 0.07 31-14 30.22-30.22-0.74-16.43-13.29-30.16-30.22-30.23z" p-id="1185"></path><path d="M361.21 542.08h301.61c15.81 0 30.95-13.9 30.22-30.22s-13.28-30.22-30.22-30.22H361.21c-15.8 0-30.95 13.9-30.22 30.22s13.28 30.22 30.22 30.22z" p-id="1186"></path><path d="M542.24 662.66v-301.6c0-15.81-13.9-31-30.22-30.23s-30.23 13.28-30.23 30.23v301.6c0 15.81 13.9 31 30.23 30.22s30.22-13.28 30.22-30.22z" p-id="1187"></path></svg>